<svg xmlns="http://www.w3.org/2000/svg" width="102" height="68" viewBox="0 0 102 68"><path fill="#0b0b15" d="M51.50 34.70L51.50 34.70Q51.50 28.30 49.55 23.75Q47.60 19.20 44.25 16.30Q40.90 13.40 36.45 12.05Q32 10.70 26.90 10.70L26.90 10.70Q23.70 10.70 21.35 10.90Q19 11.10 17 11.50L17 11.50L17 59.10Q19.40 59.70 22.15 59.90Q24.90 60.10 27.80 60.10L27.80 60.10Q39.60 60.10 45.55 53.70Q51.50 47.30 51.50 34.70ZM59.80 34.70L59.80 34.70Q59.80 42.90 57.55 48.95Q55.30 55 51.15 59Q47 63 41.10 64.95Q35.20 66.90 27.90 66.90L27.90 66.90Q24.70 66.90 20.70 66.65Q16.70 66.40 13.10 65.30L13.10 65.30Q8.90 64 8.90 60.70L8.90 60.70L8.90 9.30Q8.90 7.70 9.70 6.85Q10.50 6.00 12.20 5.50L12.20 5.50Q15.30 4.50 19.20 4.20Q23.10 3.90 27 3.90L27 3.90Q34.30 3.90 40.35 5.85Q46.40 7.80 50.70 11.65Q55 15.50 57.40 21.25Q59.80 27.00 59.80 34.70ZM81.20 22.80L81.20 65.60Q80.70 65.80 79.70 66.05Q78.70 66.30 77.50 66.30L77.50 66.30Q73.20 66.30 73.20 62.70L73.20 62.70L73.20 19.80Q73.70 19.60 74.75 19.35Q75.80 19.10 77 19.10L77 19.10Q81.20 19.10 81.20 22.80L81.20 22.80ZM72 5.00L72 5.00Q72 2.90 73.45 1.45Q74.90 0 77.20 0L77.20 0Q79.50 0 80.90 1.45Q82.30 2.90 82.30 5.00L82.30 5.00Q82.30 7.10 80.90 8.55Q79.50 10.00 77.20 10.00L77.20 10.00Q74.90 10.00 73.45 8.55Q72 7.10 72 5.00ZM90.90 61.60L90.90 61.60Q90.90 59.20 92.35 57.60Q93.80 56 96.40 56L96.40 56Q99.00 56 100.40 57.60Q101.80 59.20 101.80 61.60L101.80 61.60Q101.80 63.90 100.40 65.50Q99.00 67.10 96.40 67.10L96.40 67.10Q93.80 67.10 92.35 65.50Q90.90 63.90 90.90 61.60Z"></path></svg>